<svg width="1080" height="1080" viewBox="0 0 1080 1080" fill="none" xmlns="http://www.w3.org/2000/svg">
<path fill-rule="evenodd" clip-rule="evenodd" d="M617.981 346.615C574.11 304.699 515.484 281.766 454.819 282.786C345.707 284.144 249.619 354.943 215.994 458.751L73.3981 348.166C145.838 203.96 293.441 112.966 454.819 113.028C560.801 111.797 663.146 151.636 740.401 224.195L617.981 346.615ZM73.3981 348.166L215.994 458.751C198.148 511.342 198.147 568.354 215.993 620.945L73.3981 731.529C12.8671 610.909 12.8675 468.786 73.3981 348.166ZM599.327 756.19C479.652 832.985 320.376 798.233 243.562 678.562C232.017 660.575 222.756 641.22 215.993 620.945L73.3981 731.529C145.837 875.737 293.442 966.729 454.819 966.669C558.72 969.486 659.772 932.493 737.296 863.264L599.359 756.17C599.347 756.178 599.339 756.182 599.327 756.19ZM599.327 756.19C599.247 756.238 599.167 756.282 599.083 756.326C599.039 756.354 598.99 756.378 598.946 756.406C599.083 756.322 599.223 756.258 599.359 756.17C644.151 726.667 674.922 680.118 684.525 627.347H454.823V462.244H856.807C861.993 491.058 864.59 520.273 864.566 549.547C868.499 667.426 822.247 781.443 737.296 863.264L599.359 756.17C599.347 756.178 599.339 756.182 599.327 756.19Z" fill="#6200ED"/>
<path d="M951.78 164.758L951.795 164.758C956.439 164.758 960.865 164.748 965.082 164.739C984.189 164.699 999.025 164.668 1010.6 165.556C1024.76 166.644 1033.63 169.093 1039.35 174.25C1045.04 179.378 1047.91 187.456 1049.28 200.634C1050.53 212.632 1050.53 228.535 1050.51 249.723C1050.51 251.787 1050.51 253.901 1050.51 256.067V362.214C1023.54 402.861 1004.84 434.137 990.468 458.174L989.807 459.28C975.28 483.576 965.262 500.251 955.505 511.759C945.819 523.183 936.451 529.439 923.22 532.891C909.868 536.374 892.549 537.016 866.886 537.016H837.247C811.61 537.016 793.815 535.899 779.88 531.828C766.038 527.784 755.943 520.805 745.774 508.89C735.546 496.906 725.289 479.988 711.126 456.062C709.909 454.005 708.663 451.898 707.387 449.739C693.881 426.89 676.921 398.197 653.628 362.235L655.601 250.167L655.601 250.14C655.601 247.945 655.6 245.805 655.599 243.718C655.587 222.609 655.579 206.968 656.825 195.321C658.195 182.51 661.051 174.954 666.693 170.317C672.398 165.628 681.265 163.647 695.455 162.922C705.043 162.432 716.851 162.518 731.465 162.625C738.417 162.675 746.003 162.73 754.287 162.73C754.289 162.73 754.292 162.73 754.295 162.73L951.78 164.758Z" fill="white" stroke="#6200ED" stroke-width="2.96771" stroke-linecap="round" stroke-linejoin="round"/>
<path d="M850.098 965.033L850.043 966.515V965.031C798.886 965.031 750.199 956.662 714.355 936.286C678.607 915.965 655.601 883.7 655.601 835.592L655.601 835.566L653.629 723.518C685.745 676.57 706.968 642.117 722.322 616.856C723.808 614.411 725.238 612.054 726.617 609.781C739.558 588.45 747.991 574.55 755.735 565.436C759.993 560.426 763.99 556.929 768.351 554.466C772.707 552.006 777.502 550.533 783.413 549.672C792.265 548.382 803.413 548.479 819.085 548.616C824.556 548.664 830.578 548.716 837.247 548.716H866.886C869.656 548.716 872.321 548.713 874.887 548.709C896.141 548.681 910.566 548.662 921.722 550.737C934.041 553.028 942.3 557.866 951.24 568.306C959.977 578.509 969.286 593.969 983.499 617.572C983.995 618.396 984.498 619.23 985.006 620.075C1000 644.974 1020.28 678.475 1050.51 723.523V829.666C1050.51 877.806 1028.05 911.639 992.859 933.509C957.601 955.422 909.52 965.34 858.429 965.343L850.098 965.033Z" fill="white" stroke="#6200ED" stroke-width="2.96771" stroke-linecap="round" stroke-linejoin="round"/>
<path d="M753.683 453.629L753.684 453.63C760.34 462.515 775.33 474.28 788.727 483.86C795.413 488.641 801.679 492.862 806.275 495.888C808.572 497.401 810.452 498.615 811.757 499.451C812.409 499.868 812.918 500.192 813.263 500.41C813.436 500.52 813.568 500.603 813.657 500.658L813.757 500.721L813.782 500.737L813.788 500.741L813.79 500.742C813.79 500.742 813.79 500.742 813.71 500.871C813.665 500.943 813.595 501.054 813.487 501.227L814.029 501.045C814.19 501.527 814.666 502.402 815.438 503.644C816.198 504.867 817.212 506.397 818.412 508.166C819.391 509.61 820.496 511.218 821.683 512.945C823.395 515.435 825.279 518.176 827.204 521.035C833.727 530.724 840.859 541.97 843.873 550.234L843.874 550.235C844.648 552.372 845.352 557.018 846.002 563.422C846.656 569.857 847.263 578.143 847.822 587.615C848.942 606.56 849.874 630.273 850.621 653.468C851.242 672.772 851.733 691.719 852.096 707.264C852.31 699.475 852.563 691.232 852.838 682.933C853.957 649.233 855.449 614.576 856.195 605.591L856.195 605.59C857.407 591.138 860.567 567.863 863.31 547.659C863.96 542.874 864.586 538.261 865.158 533.979C866.662 522.705 870.053 516.242 873.12 512.585C874.33 511.143 875.485 510.142 876.447 509.457C876.096 509.485 875.725 509.513 875.344 509.54C873.286 509.683 870.841 509.791 869.555 509.599C869.245 509.553 868.912 509.479 868.669 509.327C868.543 509.249 868.372 509.106 868.299 508.869C868.22 508.613 868.295 508.383 868.393 508.224C868.486 508.074 868.617 507.953 868.746 507.855C868.88 507.754 869.043 507.653 869.229 507.553C869.602 507.353 870.111 507.131 870.769 506.883C873.395 505.893 878.652 504.394 887.978 502.153C906.43 497.718 923.278 481.138 937.998 463.298C943.725 456.356 949.112 449.247 954.136 442.618C955.558 440.741 956.952 438.902 958.316 437.117C964.483 429.041 970.059 422.031 974.956 417.527C984.556 408.66 991.069 394.523 995.185 382.535C997.239 376.553 998.689 371.127 999.625 367.198C1000.09 365.233 1000.43 363.644 1000.65 362.546C1000.77 361.997 1000.85 361.572 1000.9 361.284C1000.92 361.21 1000.93 361.144 1000.94 361.089C1000.86 361.013 1000.71 360.899 1000.47 360.758C999.844 360.4 998.605 359.897 996.211 359.431C991.422 358.498 982.137 357.735 964.217 358.476C946.357 359.215 922.511 362.194 901.814 365.37C881.104 368.549 863.604 371.916 858.421 373.425L858.417 373.426C853.162 374.916 843.685 376.995 833.449 377.005C823.222 377.015 812.153 374.959 803.799 368.094M753.683 453.629L975.344 417.947C994.76 400.012 1001.54 360.946 1001.54 360.946C1001.54 360.946 1000.06 356.423 964.193 357.905C928.41 359.386 868.71 369.835 858.261 372.876C847.812 375.839 820.575 381.142 804.161 367.652C788.566 354.916 711.403 354.907 703.666 354.938L703.924 355.508M753.683 453.629C747.005 444.748 738.273 428.419 731.196 414.27C727.661 407.204 724.546 400.694 722.314 395.952C721.198 393.58 720.303 391.651 719.687 390.315C719.379 389.646 719.141 389.126 718.98 388.774C718.899 388.597 718.838 388.463 718.797 388.372L718.751 388.27L718.739 388.244L718.736 388.238L718.735 388.236C718.735 388.236 718.735 388.236 718.707 388.249L718.735 388.236L703.924 355.508M753.683 453.629L703.298 355.511M803.799 368.094C803.799 368.094 803.798 368.093 803.798 368.093L804.16 367.653L803.8 368.094C803.799 368.094 803.799 368.094 803.799 368.094ZM803.799 368.094C801.828 366.484 798.788 365.055 794.924 363.798C791.071 362.545 786.443 361.478 781.333 360.57C771.113 358.755 759.01 357.587 747.406 356.837C735.804 356.088 724.712 355.756 716.521 355.613C712.426 355.541 709.056 355.516 706.71 355.509C705.537 355.505 704.62 355.506 703.997 355.508C703.972 355.508 703.948 355.508 703.924 355.508M703.924 355.508C703.655 355.509 703.445 355.51 703.298 355.511M926.917 808.489C931.054 812.262 938.797 817.764 947.765 824.067C948.522 824.599 949.288 825.137 950.062 825.68C958.47 831.585 967.773 838.117 976.196 844.593C985.403 851.673 993.513 858.652 998.252 864.641C1000.63 867.642 1002.1 870.333 1002.49 872.62C1002.69 873.752 1002.61 874.771 1002.26 875.681C1001.91 876.59 1001.27 877.428 1000.27 878.178C970.763 900.245 934.906 910.224 906.392 914.681C892.14 916.909 879.735 917.755 870.894 918.045C866.474 918.19 862.945 918.195 860.524 918.164C859.313 918.149 858.378 918.125 857.748 918.104C857.432 918.094 857.193 918.085 857.033 918.078C856.953 918.075 856.892 918.072 856.852 918.07L856.815 918.069L856.807 918.068L856.796 918.067L856.794 918.067L769.442 910.353L851.508 751.523C851.557 752.975 851.627 754.064 851.723 754.733L851.723 754.733C851.938 756.234 853.114 757.93 854.857 759.734C856.625 761.563 859.07 763.596 861.99 765.77C867.832 770.121 875.642 775.086 883.899 780.179C886.658 781.881 889.468 783.597 892.272 785.31C897.866 788.728 903.44 792.133 908.557 795.389C916.244 800.279 922.852 804.802 926.917 808.489ZM926.917 808.489L927.3 808.069L926.919 808.49C926.918 808.489 926.918 808.489 926.917 808.489ZM703.298 355.511L718.215 388.472L703.298 355.511Z" fill="#6200ED" stroke="#6200ED" stroke-width="1.1427"/>
<path d="M1041.96 168.153C1041.96 174.742 1037.45 181.519 1028.16 188.045C1018.91 194.542 1005.2 200.579 987.498 205.727C952.116 216.02 904.041 221.822 853.853 221.822C803.665 221.822 755.59 216.02 720.209 205.727C702.511 200.579 688.801 194.542 679.55 188.045C670.257 181.519 665.749 174.742 665.749 168.153C665.749 161.563 670.257 154.787 679.55 148.261C688.801 141.764 702.511 135.727 720.209 130.579C755.59 120.286 803.665 114.484 853.853 114.484C904.041 114.484 952.116 120.286 987.498 130.579C1005.2 135.727 1018.91 141.764 1028.16 148.261C1037.45 154.787 1041.96 161.563 1041.96 168.153Z" fill="white" stroke="#6200ED" stroke-width="2.96771" stroke-linecap="round" stroke-linejoin="round"/>
</svg>
